<?xml version="1.0" encoding="utf-8"?>
<!-- Generator: Adobe Illustrator 16.0.0, SVG Export Plug-In . SVG Version: 6.00 Build 0)  -->
<!DOCTYPE svg PUBLIC "-//W3C//DTD SVG 1.1//EN" "http://www.w3.org/Graphics/SVG/1.1/DTD/svg11.dtd">
<svg version="1.1" id="Layer_1" xmlns="http://www.w3.org/2000/svg" xmlns:xlink="http://www.w3.org/1999/xlink" x="0px" y="0px"
	 width="252.144px" height="100.184px" viewBox="0 0 252.144 100.184" enable-background="new 0 0 252.144 100.184"
	 xml:space="preserve">
<path fill="#FFFFFF" d="M180.978,30.577l12.594,22.164c0,0,5.391,0.665,11.613,1.757c6.22,1.093,14.005,2.615,14.005,2.615
	L189.163,3.38l-24.768-1.981l8.092,14.238l-25.061-1.755L139.396,0l-26.647,0.024L94.575,31.411l-25.174,2.545L87.893,1.417
	L63.125,3.399L33.164,57.113c14.287-2.977,27.47-4.699,38.267-5.913c17.148-1.929,37.004-2.481,37.004-2.481l17.642-29.428
	l17.632,29.411c0,0,7.922,0.22,11.286,0.444c3.364,0.224,13.396,0.892,13.396,0.892l-12.304-21.202L180.978,30.577z"/>
<path fill="#FFFFFF" d="M126.077,32.35v-0.041l-0.013,0.021l-0.013-0.021v0.041l-8.071,13.534c0,0,4.394-1.579,8.084-1.582
	c3.689,0.003,8.085,1.582,8.085,1.582L126.077,32.35z"/>
<polygon fill="#FFFFFF" points="33.6,65.597 29.306,65.597 29.306,63.901 39.7,63.901 39.7,65.597 35.407,65.597 35.407,77.235 
	33.6,77.235 "/>
<polygon fill="#FFFFFF" points="42.567,63.901 44.377,63.901 44.377,69.438 51.289,69.438 51.289,63.901 53.096,63.901 
	53.096,77.234 51.289,77.234 51.289,71.132 44.377,71.132 44.377,77.234 42.567,77.234 "/>
<polygon fill="#FFFFFF" points="57.473,63.901 66.08,63.901 66.08,65.598 59.281,65.598 59.281,69.568 65.609,69.568 65.609,71.265 
	59.281,71.265 59.281,75.539 66.416,75.539 66.416,77.234 57.473,77.234 "/>
<path fill="#FFFFFF" d="M77.669,63.901v8.174c0,1.656,0.83,3.808,3.354,3.808c2.522,0,3.351-2.151,3.351-3.808v-8.174h1.806v8.459
	c0,3.084-2.24,5.214-5.156,5.214c-2.922,0-5.161-2.13-5.161-5.214v-8.459H77.669z"/>
<rect x="161.573" y="63.901" fill="#FFFFFF" width="1.807" height="13.333"/>
<polygon fill="#FFFFFF" points="170.537,65.597 166.243,65.597 166.243,63.901 176.642,63.901 176.642,65.597 172.344,65.597 
	172.344,77.235 170.537,77.235 "/>
<polygon fill="#FFFFFF" points="182.651,71.549 177.605,63.901 179.925,63.901 183.557,69.759 187.305,63.901 189.509,63.901 
	184.458,71.549 184.458,77.234 182.651,77.234 "/>
<path fill="#FFFFFF" d="M197.332,70.568c0-3.955,2.882-7.004,6.949-7.004c4.066,0,6.947,3.049,6.947,7.004
	c0,3.957-2.881,7.007-6.947,7.007C200.214,77.575,197.332,74.525,197.332,70.568 M209.309,70.568c0-2.918-1.979-5.311-5.027-5.311
	c-3.051,0-5.029,2.393-5.029,5.311c0,2.917,1.979,5.311,5.029,5.311C207.33,75.879,209.309,73.485,209.309,70.568"/>
<polygon fill="#FFFFFF" points="214.777,63.901 223.159,63.901 223.159,65.598 216.586,65.598 216.586,69.778 222.707,69.778 
	222.707,71.473 216.586,71.473 216.586,77.234 214.777,77.234 "/>
<path fill="#FFFFFF" d="M5.872,86.515L0,99.846h2.106l1.318-3.294h6.346l1.334,3.294h2.111L7.512,86.515H5.872z M6.588,88.848h0.041
	l2.484,6.118H4.065L6.588,88.848z"/>
<polygon fill="#FFFFFF" points="15.897,86.515 17.708,86.515 17.708,98.149 23.825,98.149 23.825,99.847 15.897,99.847 "/>
<path fill="#FFFFFF" d="M30.801,86.515h1.636l5.708,13.331h-2.107l-1.338-3.297h-6.348l-1.317,3.297h-2.109L30.801,86.515z
	 M34.039,94.966l-2.485-6.119h-0.038l-2.524,6.119H34.039z"/>
<path fill="#FFFFFF" d="M40.826,86.515h4.632c2.314,0,4.049,1.069,4.049,3.331c0,1.524-0.942,2.487-2.295,2.938v0.035
	c1.599,0.115,2.881,1.528,2.881,3.316c0,2.39-2.094,3.71-4.692,3.71h-4.574V86.515z M42.634,92.049H45.1
	c1.378,0,2.488-0.546,2.488-1.998c0-1.055-0.662-1.955-2.11-1.955h-2.844V92.049z M42.634,98.265h2.656
	c1.092,0,2.88-0.377,2.88-2.263c0-1.578-1.11-2.369-2.863-2.369h-2.673V98.265z"/>
<path fill="#FFFFFF" d="M57.819,86.515h1.639l5.704,13.331h-2.106l-1.338-3.297h-6.346l-1.318,3.297h-2.11L57.819,86.515z
	 M61.059,94.966l-2.486-6.119h-0.04l-2.523,6.119H61.059z"/>
<polygon fill="#FFFFFF" points="67.713,86.515 70.406,86.515 74.644,96.606 74.716,96.606 78.919,86.515 81.611,86.515 
	81.611,99.847 79.8,99.847 79.8,88.885 79.768,88.885 75.263,99.847 74.059,99.847 69.56,88.885 69.52,88.885 69.52,99.847 
	67.713,99.847 "/>
<polygon fill="#FFFFFF" points="90.312,63.901 92.685,63.901 100.029,74.86 100.066,74.86 100.066,63.901 101.873,63.901 
	101.873,77.234 99.579,77.234 92.16,66.274 92.122,66.274 92.122,77.234 90.312,77.234 "/>
<rect x="106.254" y="63.901" fill="#FFFFFF" width="1.807" height="13.333"/>
<polygon fill="#FFFFFF" points="110.607,63.901 112.696,63.901 116.614,74.749 116.651,74.749 120.72,63.901 122.695,63.901 
	117.443,77.234 115.745,77.234 "/>
<polygon fill="#FFFFFF" points="125.246,63.901 133.849,63.901 133.849,65.598 127.053,65.598 127.053,69.568 133.382,69.568 
	133.382,71.265 127.053,71.265 127.053,75.539 134.19,75.539 134.19,77.234 125.246,77.234 "/>
<path fill="#FFFFFF" d="M137.697,63.901h4.69c3.41,0,4.274,2.053,4.274,3.73c0,1.694-1.259,3.295-3.276,3.521l3.785,6.082h-2.26
	l-3.392-5.874h-2.013v5.874h-1.81V63.901z M139.507,69.778h2.373c1.43,0,2.861-0.34,2.861-2.146c0-1.808-1.432-2.148-2.861-2.148
	h-2.373V69.778z"/>
<path fill="#FFFFFF" d="M150.548,74.447c0.64,0.979,1.751,1.432,2.827,1.432c1.184,0,2.653-0.753,2.653-2.222
	c0-3.07-6.572-1.168-6.572-6.367c0-1.56,1.318-3.726,4.521-3.726c1.45,0,2.84,0.303,3.841,1.525l-1.47,1.338
	c-0.452-0.697-1.336-1.17-2.371-1.17c-1.998,0-2.6,1.206-2.6,2.032c0,3.374,6.57,1.358,6.57,6.162c0,2.577-2.071,4.122-4.632,4.122
	c-1.714,0-3.353-0.586-4.254-1.845L150.548,74.447z"/>
<path fill="#FFFFFF" d="M90.035,86.515h1.641l5.707,13.331h-2.11l-1.336-3.297h-6.346l-1.32,3.297h-2.109L90.035,86.515z
	 M93.279,94.966l-2.487-6.119h-0.037l-2.524,6.119H93.279z"/>
<rect x="106.241" y="86.512" fill="#FFFFFF" width="1.811" height="13.335"/>
<polygon fill="#FFFFFF" points="112.424,86.515 114.799,86.515 122.141,97.475 122.179,97.475 122.179,86.515 123.986,86.515 
	123.986,99.847 121.688,99.847 114.271,88.885 114.23,88.885 114.23,99.847 112.424,99.847 "/>
<polygon fill="#FFFFFF" points="134.543,86.515 136.351,86.515 136.351,92.049 143.263,92.049 143.263,86.515 145.07,86.515 
	145.07,99.847 143.263,99.847 143.263,93.745 136.351,93.745 136.351,99.847 134.543,99.847 "/>
<path fill="#FFFFFF" d="M151.01,86.515v8.171c0,1.655,0.829,3.802,3.353,3.802c2.521,0,3.352-2.146,3.352-3.802v-8.171h1.807v8.451
	c0,3.091-2.237,5.218-5.158,5.218c-2.92,0-5.16-2.127-5.16-5.218v-8.451H151.01z"/>
<polygon fill="#FFFFFF" points="163.653,86.515 166.028,86.515 173.369,97.475 173.408,97.475 173.408,86.515 175.217,86.515 
	175.217,99.847 172.917,99.847 165.497,88.885 165.46,88.885 165.46,99.847 163.653,99.847 "/>
<polygon fill="#FFFFFF" points="182.381,88.206 178.088,88.206 178.088,86.512 188.481,86.512 188.481,88.206 184.188,88.206 
	184.188,99.845 182.381,99.845 "/>
<path fill="#FFFFFF" d="M191.746,97.057c0.64,0.979,1.751,1.431,2.823,1.431c1.188,0,2.656-0.752,2.656-2.22
	c0-3.072-6.572-1.167-6.572-6.366c0-1.563,1.316-3.728,4.519-3.728c1.452,0,2.845,0.301,3.842,1.526l-1.465,1.336
	c-0.456-0.697-1.341-1.169-2.377-1.169c-1.995,0-2.597,1.203-2.597,2.034c0,3.369,6.573,1.358,6.573,6.156
	c0,2.583-2.074,4.126-4.634,4.126c-1.716,0-3.352-0.585-4.256-1.847L191.746,97.057z"/>
<polygon fill="#FFFFFF" points="200.941,86.515 203.03,86.515 206.95,97.358 206.985,97.358 211.056,86.515 213.028,86.515 
	207.777,99.847 206.081,99.847 "/>
<rect x="215.583" y="86.512" fill="#FFFFFF" width="1.807" height="13.335"/>
<polygon fill="#FFFFFF" points="221.762,86.515 223.568,86.515 223.568,98.149 229.688,98.149 229.688,99.847 221.762,99.847 "/>
<polygon fill="#FFFFFF" points="232.481,86.515 234.288,86.515 234.288,98.149 240.407,98.149 240.407,99.847 232.481,99.847 "/>
<polygon fill="#FFFFFF" points="243.201,86.515 251.808,86.515 251.808,88.209 245.009,88.209 245.009,92.179 251.336,92.179 
	251.336,93.875 245.009,93.875 245.009,98.149 252.144,98.149 252.144,99.847 243.201,99.847 "/>
</svg>
